<svg width="32" height="32" viewBox="0 0 32 32" fill="none" xmlns="http://www.w3.org/2000/svg">
  <path d="M16 4C18.2091 4 20 5.79086 20 8V10C20 12.2091 18.2091 14 16 14C13.7909 14 12 12.2091 12 10V8C12 5.79086 13.7909 4 16 4Z" fill="#4F46E5"/>
  <path d="M8 12C10.2091 12 12 13.7909 12 16V18C12 20.2091 10.2091 22 8 22C5.79086 22 4 20.2091 4 18V16C4 13.7909 5.79086 12 8 12Z" fill="#4F46E5"/>
  <path d="M24 12C26.2091 12 28 13.7909 28 16V18C28 20.2091 26.2091 22 24 22C21.7909 22 20 20.2091 20 18V16C20 13.7909 21.7909 12 24 12Z" fill="#4F46E5"/>
  <path d="M16 18C18.2091 18 20 19.7909 20 22V24C20 26.2091 18.2091 28 16 28C13.7909 28 12 26.2091 12 24V22C12 19.7909 13.7909 18 16 18Z" fill="#4F46E5"/>
</svg> 